<?xml version="1.0" encoding="iso-8859-1"?>
<!-- Uploaded to: SVG Repo, www.svgrepo.com, Generator: SVG Repo Mixer Tools -->
<svg height="800px" width="800px" version="1.1" id="Layer_1" xmlns="http://www.w3.org/2000/svg" xmlns:xlink="http://www.w3.org/1999/xlink" 
	 viewBox="0 0 508 508" xml:space="preserve">
<path style="fill:#E9B526;" d="M166.408,293.6c0-13.2,5.2-25.6,14.4-34.8c9.2-9.2,21.6-14.4,34.4-14.4c12.8,0,25.2,5.2,34.4,14.4
	c19.2,19.2,19.2,50.8,0,70c-9.2,9.2-21.6,14.4-34.4,14.4l0,0c-12.4,0-24.4-4.8-33.2-13.6l-145.2,147.2l24.8,24.8l240.8-92.4
	c20-8.4,41.2-32.4,47.6-53.2l42.8-140.8l-100.4-102l-139.2,43.2c-20.4,6.4-44,28.4-52.4,48.4l-90.8,244.4l24,24.8l144.8-146.8
	C170.808,318,166.408,306,166.408,293.6z"/>
<g>
	<path style="fill:#FFC52F;" d="M166.408,290.8l-156.4,158.4l20.4,20.4l145.2-147.2c-6-8.4-9.2-18.4-9.2-28.8
		C166.408,292.8,166.408,291.6,166.408,290.8z"/>
	<path style="fill:#FFC52F;" d="M212.408,244.4c0.8,0,2,0,2.8,0c10.4,0,20.4,3.2,28.4,9.2l93.6-94.8l-20-20.8L212.408,244.4z"/>
</g>
<path style="fill:#E9B526;" d="M246.808,326c17.6-17.6,17.6-46.8,0-64.4c-8.4-8.8-19.6-13.2-31.6-13.2s-23.2,4.8-31.6,13.2
	c-8.4,8.4-13.2,20-13.2,32c0,11.6,4.4,22.8,12.4,31.2c0.4,0,0.4,0.4,0.8,0.4c0.4,0.4,0.4,0.4,0.4,0.8c8.4,8.4,19.6,12.8,31.2,12.8
	C227.208,339.2,238.408,334.4,246.808,326z"/>
<path style="fill:#FFC52F;" d="M208.008,248.8l-36.8,37.6c-0.4,2.4-0.8,4.8-0.8,7.6c0,9.6,2.8,18.4,8,26l62.4-63.2
	c-7.6-5.2-16.4-8-25.6-8C212.808,248,210.408,248.4,208.008,248.8z"/>
<polygon style="fill:#4BB19B;" points="406.408,223.2 497.608,131.2 375.208,6.8 284.008,99.2 "/>
<polygon style="fill:#61C2AB;" points="410.808,43.2 320.008,135.2 340.008,156 431.208,63.6 "/>
<path d="M61.208,508c-1.2,0-2-0.4-2.8-1.2l-53.6-54.4c-1.2-1.2-1.6-2.8-0.8-4.4l91.6-245.6c8.8-21.6,34-44.8,56-52l140-44
	c2-0.8,4.4,0.4,5.2,2.8c0.8,2-0.4,4.4-2.8,5.2l-140,44c-19.6,6.4-43.2,28-51.2,47.2l-90.8,243.2l50,50.8l239.6-92
	c18.8-8.4,40-32,46.4-52l43.6-142c0.8-2,2.8-3.2,5.2-2.8c2,0.8,3.2,2.8,2.8,4.8l-43.6,142c-7.2,22-30,47.6-51.2,56.8l-242,92.8
	C62.008,508,61.608,508,61.208,508z"/>
<path d="M215.208,345.2c-13.6,0-26.4-5.2-36-14.8c-9.6-9.6-14.8-22.4-14.8-36.4s5.2-26.8,14.8-36.4s22.4-14.8,36-14.8
	s26.4,5.2,36,14.8l0,0c20,20.4,20,52.8,0,72.8C241.608,339.6,228.808,345.2,215.208,345.2z M215.208,250.4c-10.8,0-22,4-30.4,12.4
	c-8,8-12.8,19.2-12.8,30.8c0,11.6,4.4,22.8,12.8,30.8c8,8,18.8,12.8,30.4,12.8c11.6,0,22.4-4.4,30.4-12.8
	c16.8-16.8,16.8-44.4,0-61.6C237.208,254.4,226.008,250.4,215.208,250.4z"/>
<path d="M34.008,480.8c-1.2,0-2-0.4-2.8-1.2c-1.6-1.6-1.6-4,0-5.6l148-150c1.6-1.6,4-1.6,5.6,0s1.6,4,0,5.6l-148,150
	C36.008,480.4,35.208,480.8,34.008,480.8z"/>
<path d="M406.408,230L406.408,230c-1.2,0-2-0.4-2.8-1.2L278.408,102c-1.6-1.6-1.6-4,0-5.6l94-95.2c0.8-0.8,1.6-1.2,2.8-1.2l0,0
	c1.2,0,2,0.4,2.8,1.2l125.2,127.2c1.6,1.6,1.6,4,0,5.6l-94,94.8C408.408,229.6,407.608,230,406.408,230z M286.808,99.2l119.6,121.2
	l88.4-89.2L375.208,9.6L286.808,99.2z"/>
<path d="M379.608,202.4c-1.2,0-2-0.4-2.8-1.2c-1.6-1.6-1.6-4,0-5.6l66.4-67.2c1.6-1.6,4-1.6,5.6,0c1.6,1.6,1.6,4,0,5.6l-66.4,67.2
	C381.608,202,380.808,202.4,379.608,202.4z"/>
</svg>